# xmcd
#
# Track frame offsets:
# 150
# 18615
# 36530
# 56952
# 74167
# 124050
# 144697
# 165157
# 176932
# 185405
# 194985
# 204555
# 216402
# 231805
# 244435
# 256790
#
# Disc length: 3543 seconds
#
#
# Revision: 0
# Processed by: cddbd v1.5.1PL2 Copyright (c) Steve Scherf et al.
# Submitted via: FreeRIP 2.942 
#
DISCID=0c0dd510
DTITLE=Renato Borguettti e Gilberto Monteiro - Dose Dupla
DYEAR=1900
DGENRE=Ballad
TTITLE0=Barra do Ribeiro
TTITLE1=Sâo Jorge
TTITLE2=Terça-Feira
TTITLE3=Ferrão  de Marimbondo
TTITLE4=Fantasia para Gaita Ponto
TTITLE5=Negrinho Pastoreiro
TTITLE6=Prelúdio de um Beija-Flor
TTITLE7=Os Zóio da Véia
TTITLE8=Balaço de Contrabanda
TTITLE9=Boa Vista de São Domingos
TTITLE10=Recortdando as Bailantas
TTITLE11=Unistalda Campeira
TTITLE12=Pra Ti Guria
TTITLE13=Entrevero de Alpargata
TTITLE14=Cabresteando
TTITLE15=Alumiando as Maçanetas
EXTD=
EXTT0=
EXTT1=
EXTT2=
EXTT3=
EXTT4=
EXTT5=
EXTT6=
EXTT7=
EXTT8=
EXTT9=
EXTT10=
EXTT11=
EXTT12=
EXTT13=
EXTT14=
EXTT15=
PLAYORDER=
